# File created by Blade
# Date/Time:  Wed Jan 21 15:23:43 2015
# Frame Rate: 120.000 fps
#------------------------------------------------------
:FULLY-SPECIFIED
:DEGREES
1494
root 19.709589 35.810185 -19.544676 -178.295113 4.907457 -177.237244
Spine -1.610832 3.326186 -3.152472
Head 5.504845 -0.122270 9.243897
LeftShoulder -4.286636 -25.679919 1.197967
LeftArm -8.482875 21.713764 -60.958168
LeftForeArm 13.150357 -0.000000 22.375876
LeftHand -1.169860 -0.000000 -4.921807
LeftHandThumb1 -26.253704 0.000000 33.147579
RightShoulder -4.557033 -11.615735 9.489060
RightArm 18.285163 -15.406113 59.450677
RightForeArm -35.440489 0.000000 31.770619
RightHand 2.234236 -0.000000 8.827037
RightHandThumb1 -24.326973 -0.000000 -32.862282
LeftUpLeg 4.517750 11.155295 -0.769723
LeftLeg -7.446962 -0.000000 0.000000
LeftFoot -16.792707 25.777092 -9.929425
LeftToeBase 25.203591 -0.000000 -0.000000
RightUpLeg -10.574484 -3.975234 -0.447192
RightLeg 21.708368 -0.000000 -0.000000
RightFoot -27.461390 -18.092752 20.408149
RightToeBase 8.798403 -0.000000 -0.000000
1495
root 19.688128 35.813089 -19.551892 -178.261009 4.813493 -177.205346
Spine -1.832714 3.350914 -3.131951
Head 5.369723 -0.275536 9.211074
LeftShoulder -4.278126 -25.690688 1.181558
LeftArm -8.054745 22.158104 -60.088208
LeftForeArm 13.282738 -0.000000 22.575565
LeftHand -1.153166 -0.000000 -5.044588
LeftHandThumb1 -26.253704 0.000000 33.147579
RightShoulder -4.606718 -11.654382 9.388465
RightArm 18.438603 -15.145520 58.948174
RightForeArm -35.397091 -0.000000 31.009252
RightHand 2.159279 -0.000000 8.660641
RightHandThumb1 -24.326973 -0.000000 -32.862282
LeftUpLeg 4.460331 11.085231 -0.774470
LeftLeg -7.397576 -0.000000 0.000000
LeftFoot -16.818683 25.742854 -9.923618
LeftToeBase 25.182841 -0.000000 -0.000000
RightUpLeg -10.270752 -3.751015 -0.191281
RightLeg 21.111183 -0.000000 -0.000000
RightFoot -27.426738 -17.916059 20.588951
RightToeBase 8.486281 -0.000000 -0.000000
1496
root 19.666519 35.816683 -19.567645 -178.256057 4.513832 -177.146845
Spine -2.023470 3.139709 -3.040721
Head 5.279421 -0.434738 9.122039
LeftShoulder -4.296156 -25.707259 1.149840
LeftArm -7.644326 22.414654 -59.204516
LeftForeArm 13.556831 -0.000000 22.674029
LeftHand -1.054241 -0.000000 -5.229945
LeftHandThumb1 -26.253704 0.000000 33.147579
RightShoulder -4.619171 -11.671639 9.237119
RightArm 18.534891 -14.873218 58.458540
RightForeArm -35.523872 -0.000000 30.170293
RightHand 2.288786 -0.000000 8.960042
RightHandThumb1 -24.326973 -0.000000 -32.862282
LeftUpLeg 4.408151 10.827120 -0.745382
LeftLeg -7.314016 -0.000000 0.000000
LeftFoot -16.874999 25.699931 -9.938048
LeftToeBase 25.187738 -0.000000 -0.000000
RightUpLeg -9.883769 -4.071191 0.080534
RightLeg 20.437247 -0.000000 -0.000000
RightFoot -27.345434 -17.578966 20.684127
RightToeBase 8.141027 -0.000000 -0.000000
1497
root 19.641772 35.818266 -19.570669 -178.205651 4.488722 -177.164946
Spine -2.243503 3.187700 -3.048523
Head 5.124725 -0.546724 9.036031
LeftShoulder -4.311418 -25.713214 1.114862
LeftArm -7.184318 22.657115 -58.267666
LeftForeArm 13.918231 0.000000 22.700550
LeftHand -0.983892 0.000000 -5.265089
LeftHandThumb1 -26.253704 0.000000 33.147579
RightShoulder -4.606104 -11.667298 9.080151
RightArm 18.643067 -14.576142 57.972756
RightForeArm -35.441676 0.000000 29.272849
RightHand 2.320317 0.000000 8.944076
RightHandThumb1 -24.326973 -0.000000 -32.862282
LeftUpLeg 4.316977 10.863065 -0.807555
LeftLeg -7.233689 -0.000000 0.000000
LeftFoot -16.888056 25.610582 -9.907029
LeftToeBase 25.189855 -0.000000 -0.000000
RightUpLeg -9.655567 -3.893436 0.252186
RightLeg 19.873356 -0.000000 -0.000000
RightFoot -27.352670 -17.535852 20.707586
RightToeBase 8.643191 -0.000000 -0.000000
